<?xml version="1.0" encoding="UTF-8" standalone="no"?>
<svg
   xmlns:dc="http://purl.org/dc/elements/1.1/"
   xmlns:cc="http://creativecommons.org/ns#"
   xmlns:rdf="http://www.w3.org/1999/02/22-rdf-syntax-ns#"
   xmlns:svg="http://www.w3.org/2000/svg"
   xmlns="http://www.w3.org/2000/svg"
   xmlns:sodipodi="http://sodipodi.sourceforge.net/DTD/sodipodi-0.dtd"
   xmlns:inkscape="http://www.inkscape.org/namespaces/inkscape"
   viewBox="0 0 837 118"
   class="etiBrandLogo gotogate css-1u3bd1l"
   version="1.1"
   id="svg24"
   sodipodi:docname="svgviewer-output.svg"
   width="837"
   height="118"
   inkscape:version="0.92.5 (2060ec1f9f, 2020-04-08)">
  <metadata
     id="metadata30">
    <rdf:RDF>
      <cc:Work
         rdf:about="">
        <dc:format>image/svg+xml</dc:format>
        <dc:type
           rdf:resource="http://purl.org/dc/dcmitype/StillImage" />
        <dc:title>GoToGate</dc:title>
      </cc:Work>
    </rdf:RDF>
  </metadata>
  <defs
     id="defs28" />
  <sodipodi:namedview
     pagecolor="#ffffff"
     bordercolor="#666666"
     borderopacity="1"
     objecttolerance="10"
     gridtolerance="10"
     guidetolerance="10"
     inkscape:pageopacity="0"
     inkscape:pageshadow="2"
     inkscape:window-width="1920"
     inkscape:window-height="1009"
     id="namedview26"
     showgrid="false"
     inkscape:pagecheckerboard="true"
     fit-margin-top="0"
     fit-margin-left="0"
     fit-margin-right="0"
     fit-margin-bottom="0"
     inkscape:zoom="1.2948893"
     inkscape:cx="378.33286"
     inkscape:cy="142.52243"
     inkscape:window-x="1912"
     inkscape:window-y="70"
     inkscape:window-maximized="1"
     inkscape:current-layer="svg24" />
  <title
     id="brand-gotogate">GoToGate</title>
  <path
     d="m 60.284925,2.8127374e-5 h -29.4624 A 30.8016,30.472958 0 0 0 0,30.452285 v 7.659643 A 12.555,12.421043 0 0 0 12.555,50.53297 h 4.540725 V 30.452285 A 13.7268,13.58034 0 0 1 30.84345,16.892646 h 29.4624 a 13.7268,13.58034 0 0 1 13.7268,13.559639 V 39.33333 H 91.128375 V 30.472986 A 30.822525,30.49366 0 0 0 60.30585,2.8127374e-5 M 182.19397,87.589081 a 13.7268,13.58034 0 0 1 -13.7268,13.559639 h -29.4624 A 13.747725,13.601042 0 0 1 125.25705,87.589081 V 67.529098 h -17.0748 v 20.059983 a 30.8016,30.472958 0 0 0 30.82252,30.410859 h 29.4624 A 30.8016,30.472958 0 0 0 199.2897,87.589081 V 67.529098 H 182.19397 Z M 168.46717,2.8127374e-5 h -29.4624 A 30.822525,30.49366 0 0 0 108.18225,30.472986 v 7.659643 a 12.555,12.421043 0 0 0 12.555,12.421043 h 4.54072 V 30.472986 A 13.7268,13.58034 0 0 1 139.0257,16.913348 h 29.44147 a 13.705875,13.559638 0 0 1 13.74773,13.518235 v 7.701046 a 12.555,12.421043 0 0 0 12.555,12.421043 h 4.54072 V 30.472986 A 30.822525,30.49366 0 0 0 168.4881,2.8127374e-5 M 409.9626,87.589081 a 13.747725,13.601042 0 0 1 -13.74773,13.559639 h -29.4624 A 13.7268,13.58034 0 0 1 353.02567,87.589081 V 67.529098 h -17.09572 v 20.059983 a 30.8016,30.472958 0 0 0 30.82252,30.410859 h 29.4624 A 30.75975,30.431555 0 0 0 427.0374,87.630485 V 67.529098 H 409.9626 Z M 396.21487,2.8127374e-5 h -29.4624 A 30.84345,30.514362 0 0 0 335.92995,30.431583 v 7.659643 a 12.555,12.421043 0 0 0 12.555,12.421043 h 4.54072 V 30.472986 A 13.7268,13.58034 0 0 1 366.7734,16.913348 h 29.4624 a 13.7268,13.58034 0 0 1 13.7268,13.559638 v 7.659643 a 12.555,12.421043 0 0 0 12.555,12.421043 h 4.54072 V 30.472986 A 30.822525,30.49366 0 0 0 396.2358,2.8127374e-5 m 408.93727,0 A 30.84345,30.514362 0 0 0 774.35055,30.431583 v 7.659643 a 12.555,12.421043 0 0 0 12.555,12.421043 h 4.54073 V 30.472986 A 13.747725,13.601042 0 0 1 805.194,16.913348 H 837 V 0.12423813 H 805.194 M 45.6165,84.297505 h 28.41615 v 3.291576 A 13.747725,13.601042 0 0 1 60.284925,101.14872 h -29.4624 A 13.747725,13.601042 0 0 1 17.0748,87.589081 V 67.529098 H 0 v 20.059983 a 30.75975,30.431555 0 0 0 30.780675,30.410859 h 29.50425 A 30.8016,30.472958 0 0 0 91.10745,87.589081 V 67.446291 H 45.553725 Z m 478.28272,0 h 28.458 v 3.291576 a 13.7268,13.58034 0 0 1 -13.7268,13.559639 H 509.10525 A 13.747725,13.601042 0 0 1 495.35752,87.589081 V 67.529098 h -17.07479 v 20.059983 a 30.8016,30.472958 0 0 0 30.82252,30.410859 h 29.4624 a 30.8016,30.472958 0 0 0 30.82252,-30.410859 v -20.14279 h -45.55372 z m 250.5141,-16.768407 v 20.059983 a 30.8016,30.472958 0 0 0 30.75975,30.410859 H 837 V 101.23153 H 805.194 A 13.7268,13.58034 0 0 1 791.4672,87.671888 V 84.276803 H 837 V 67.425589 H 774.35055 Z M 233.4393,2.8127374e-5 V 16.871944 h 37.01632 v 21.260685 a 12.555,12.421043 0 0 0 12.555,12.421043 h 4.54073 V 16.851243 h 37.01632 V 2.8127374e-5 Z M 287.53042,67.529098 h -17.0748 v 50.470842 h 17.0748 z M 666.18922,2.8127374e-5 V 16.871944 h 37.01633 v 21.260685 a 12.555,12.421043 0 0 0 3.66187,8.756836 12.555,12.421043 0 0 0 8.89313,3.622804 h 4.54072 V 16.851243 h 36.9954 V 2.8127374e-5 Z M 720.25942,67.529098 h -17.0748 v 50.470842 h 17.0748 z M 538.56765,2.8127374e-5 h -29.4624 A 30.84345,30.514362 0 0 0 478.28273,30.431583 v 7.659643 a 12.555,12.421043 0 0 0 12.55499,12.421043 h 4.54073 V 30.472986 a 13.60125,13.45613 0 0 1 4.03852,-9.584904 13.7268,13.58034 0 0 1 9.7092,-3.974734 h 29.44148 A 13.747725,13.601042 0 0 1 552.42,30.410881 v 8.922449 h 17.0748 V 30.472986 A 30.8016,30.472958 0 0 0 538.65135,2.8127374e-5 M 626.43172,19.666679 635.3667,50.53297 h 17.0748 L 637.794,0.02073013 H 614.9439 L 605.02545,34.32351 a 12.743325,12.607358 0 0 0 2.0925,11.158236 12.84795,12.710867 0 0 0 10.2951,5.051224 z m -30.969,47.862419 -14.6475,50.470842 h 17.07481 L 607.662,84.297505 h 37.4139 l 9.7092,33.702435 h 17.0748 L 657.2124,67.529098 Z"
     id="path22"
     inkscape:connector-curvature="0"
     style="fill:#0b99f0;stroke-width:0.99999994" />
</svg>
