{
  "accessors": [
    {
      "bufferView": 2,
      "componentType": 5126,
      "count": 5067,
      "max": [
        4.586970329284668,
        20.689599990844727,
        17.4718017578125
      ],
      "min": [
        -4.586970329284668,
        -24.054201126098633,
        2.246270179748535
      ],
      "type": "VEC3"
    },
    {
      "bufferView": 2,
      "byteOffset": 60804,
      "componentType": 5126,
      "count": 5067,
      "max": [
        1.0,
        1.0,
        1.0
      ],
      "min": [
        -1.0,
        -1.0,
        -1.0
      ],
      "type": "VEC3"
    },
    {
      "bufferView": 0,
      "componentType": 5125,
      "count": 10413,
      "type": "SCALAR"
    },
    {
      "bufferView": 2,
      "byteOffset": 121608,
      "componentType": 5126,
      "count": 144,
      "max": [
        3.47721004486084,
        14.587401390075684,
        11.436800003051758
      ],
      "min": [
        -3.47721004486084,
        -4.738029956817627,
        4.554750442504883
      ],
      "type": "VEC3"
    },
    {
      "bufferView": 2,
      "byteOffset": 123336,
      "componentType": 5126,
      "count": 144,
      "max": [
        1.0,
        0.9999985694885254,
        1.0
      ],
      "min": [
        -1.0,
        -0.9911751747131348,
        -0.7075388431549072
      ],
      "type": "VEC3"
    },
    {
      "bufferView": 1,
      "componentType": 5126,
      "count": 144,
      "max": [
        1.0,
        1.0000001192092896
      ],
      "min": [
        -1.7881400538044545e-07,
        0.0
      ],
      "type": "VEC2"
    },
    {
      "bufferView": 0,
      "byteOffset": 41652,
      "componentType": 5125,
      "count": 384,
      "type": "SCALAR"
    },
    {
      "bufferView": 2,
      "byteOffset": 125064,
      "componentType": 5126,
      "count": 339,
      "max": [
        4.397860050201416,
        20.675901412963867,
        9.684320449829102
      ],
      "min": [
        -4.397860050201416,
        -19.366100311279297,
        -0.026343800127506256
      ],
      "type": "VEC3"
    },
    {
      "bufferView": 2,
      "byteOffset": 129132,
      "componentType": 5126,
      "count": 339,
      "max": [
        0.9996086955070496,
        0.9860081076622009,
        0.9995901584625244
      ],
      "min": [
        -0.9996086955070496,
        -1.0,
        -0.9999985694885254
      ],
      "type": "VEC3"
    },
    {
      "bufferView": 3,
      "componentType": 5126,
      "count": 339,
      "max": [
        1.0,
        1.0,
        1.0,
        1.0
      ],
      "min": [
        0.0,
        0.0,
        0.0,
        0.0
      ],
      "type": "VEC4"
    },
    {
      "bufferView": 0,
      "byteOffset": 43188,
      "componentType": 5125,
      "count": 1083,
      "type": "SCALAR"
    },
    {
      "bufferView": 2,
      "byteOffset": 133200,
      "componentType": 5126,
      "count": 19,
      "max": [
        3.964430093765259,
        17.30390167236328,
        7.46707010269165
      ],
      "min": [
        -3.964430093765259,
        7.226120471954346,
        7.46707010269165
      ],
      "type": "VEC3"
    },
    {
      "bufferView": 2,
      "byteOffset": 133428,
      "componentType": 5126,
      "count": 19,
      "max": [
        0.0,
        0.0,
        1.0
      ],
      "min": [
        0.0,
        0.0,
        0.9999999403953552
      ],
      "type": "VEC3"
    },
    {
      "bufferView": 1,
      "byteOffset": 1152,
      "componentType": 5126,
      "count": 19,
      "max": [
        1.0,
        1.0
      ],
      "min": [
        2.98022992950564e-08,
        0.0
      ],
      "type": "VEC2"
    },
    {
      "bufferView": 0,
      "byteOffset": 47520,
      "componentType": 5125,
      "count": 54,
      "type": "SCALAR"
    },
    {
      "bufferView": 2,
      "byteOffset": 133656,
      "componentType": 5126,
      "count": 362,
      "max": [
        4.548710346221924,
        19.921802520751953,
        9.958510398864746
      ],
      "min": [
        -4.548710346221924,
        -4.855180263519287,
        2.941960096359253
      ],
      "type": "VEC3"
    },
    {
      "bufferView": 2,
      "byteOffset": 138000,
      "componentType": 5126,
      "count": 362,
      "max": [
        0.8278223872184753,
        1.0,
        1.0
      ],
      "min": [
        -0.6706393361091614,
        -0.002931493567302823,
        -0.34962546825408936
      ],
      "type": "VEC3"
    },
    {
      "bufferView": 1,
      "byteOffset": 1304,
      "componentType": 5126,
      "count": 362,
      "max": [
        1.0,
        1.0000017881393433
      ],
      "min": [
        -5.960459930065554e-07,
        0.0
      ],
      "type": "VEC2"
    },
    {
      "bufferView": 0,
      "byteOffset": 47736,
      "componentType": 5125,
      "count": 618,
      "type": "SCALAR"
    },
    {
      "bufferView": 2,
      "byteOffset": 142344,
      "componentType": 5126,
      "count": 289,
      "max": [
        4.537819862365723,
        21.026100158691406,
        16.78700065612793
      ],
      "min": [
        -4.537819862365723,
        2.042220115661621,
        2.8510100841522217
      ],
      "type": "VEC3"
    },
    {
      "bufferView": 2,
      "byteOffset": 145812,
      "componentType": 5126,
      "count": 289,
      "max": [
        0.9999211430549622,
        0.993481457233429,
        1.0
      ],
      "min": [
        -1.0,
        -0.9510565400123596,
        -1.0
      ],
      "type": "VEC3"
    },
    {
      "bufferView": 1,
      "byteOffset": 4200,
      "componentType": 5126,
      "count": 289,
      "max": [
        1.0,
        1.0000033378601074
      ],
      "min": [
        -1.4901199847372482e-06,
        0.0
      ],
      "type": "VEC2"
    },
    {
      "bufferView": 0,
      "byteOffset": 50208,
      "componentType": 5125,
      "count": 405,
      "type": "SCALAR"
    },
    {
      "bufferView": 2,
      "byteOffset": 149280,
      "componentType": 5126,
      "count": 1546,
      "max": [
        4.560510158538818,
        17.985700607299805,
        14.053200721740723
      ],
      "min": [
        -4.560510158538818,
        -23.499801635742188,
        4.73015022277832
      ],
      "type": "VEC3"
    },
    {
      "bufferView": 2,
      "byteOffset": 167832,
      "componentType": 5126,
      "count": 1546,
      "max": [
        1.0,
        1.0,
        1.0
      ],
      "min": [
        -1.0,
        -1.0,
        -1.0
      ],
      "type": "VEC3"
    },
    {
      "bufferView": 1,
      "byteOffset": 6512,
      "componentType": 5126,
      "count": 1546,
      "max": [
        1.0,
        1.0000048875808716
      ],
      "min": [
        -1.7285300373259815e-06,
        -1.0013580322265625e-05
      ],
      "type": "VEC2"
    },
    {
      "bufferView": 0,
      "byteOffset": 51828,
      "componentType": 5125,
      "count": 3948,
      "type": "SCALAR"
    },
    {
      "bufferView": 2,
      "byteOffset": 186384,
      "componentType": 5126,
      "count": 84,
      "max": [
        3.873380184173584,
        14.587401390075684,
        9.752420425415039
      ],
      "min": [
        -3.873380184173584,
        -16.547199249267578,
        4.562610149383545
      ],
      "type": "VEC3"
    },
    {
      "bufferView": 2,
      "byteOffset": 187392,
      "componentType": 5126,
      "count": 84,
      "max": [
        1.0,
        0.9999998807907104,
        1.0
      ],
      "min": [
        -1.0,
        -0.0006902283057570457,
        -4.061705112690106e-05
      ],
      "type": "VEC3"
    },
    {
      "bufferView": 1,
      "byteOffset": 18880,
      "componentType": 5126,
      "count": 84,
      "max": [
        1.0,
        1.0
      ],
      "min": [
        0.0,
        0.0
      ],
      "type": "VEC2"
    },
    {
      "bufferView": 0,
      "byteOffset": 67620,
      "componentType": 5125,
      "count": 228,
      "type": "SCALAR"
    },
    {
      "bufferView": 2,
      "byteOffset": 188400,
      "componentType": 5126,
      "count": 126,
      "max": [
        3.888320207595825,
        6.79000997543335,
        14.053200721740723
      ],
      "min": [
        -3.888320207595825,
        -4.204890251159668,
        7.467060565948486
      ],
      "type": "VEC3"
    },
    {
      "bufferView": 2,
      "byteOffset": 189912,
      "componentType": 5126,
      "count": 126,
      "max": [
        1.0,
        1.0,
        0.6112592220306396
      ],
      "min": [
        -1.0,
        -0.01777937263250351,
        -0.5380128026008606
      ],
      "type": "VEC3"
    },
    {
      "bufferView": 1,
      "byteOffset": 19552,
      "componentType": 5126,
      "count": 126,
      "max": [
        1.0,
        1.0000004768371582
      ],
      "min": [
        0.0,
        0.0
      ],
      "type": "VEC2"
    },
    {
      "bufferView": 0,
      "byteOffset": 68532,
      "componentType": 5125,
      "count": 306,
      "type": "SCALAR"
    },
    {
      "bufferView": 2,
      "byteOffset": 191424,
      "componentType": 5126,
      "count": 8,
      "max": [
        2.2201101779937744,
        -11.297000885009766,
        8.076720237731934
      ],
      "min": [
        -2.2201101779937744,
        -14.10010051727295,
        8.07671070098877
      ],
      "type": "VEC3"
    },
    {
      "bufferView": 2,
      "byteOffset": 191520,
      "componentType": 5126,
      "count": 8,
      "max": [
        5.344389137462713e-06,
        -3.714926322118117e-07,
        1.0
      ],
      "min": [
        -5.344389137462713e-06,
        -3.430830247452832e-06,
        1.0
      ],
      "type": "VEC3"
    },
    {
      "bufferView": 1,
      "byteOffset": 20560,
      "componentType": 5126,
      "count": 8,
      "max": [
        1.0,
        1.000000238418579
      ],
      "min": [
        -5.96045985901128e-08,
        0.0
      ],
      "type": "VEC2"
    },
    {
      "bufferView": 0,
      "byteOffset": 69756,
      "componentType": 5125,
      "count": 12,
      "type": "SCALAR"
    },
    {
      "bufferView": 2,
      "byteOffset": 191616,
      "componentType": 5126,
      "count": 6,
      "max": [
        2.5993402004241943,
        15.17650032043457,
        4.570470333099365
      ],
      "min": [
        -2.5993402004241943,
        12.009300231933594,
        4.562610149383545
      ],
      "type": "VEC3"
    },
    {
      "bufferView": 2,
      "byteOffset": 191688,
      "componentType": 5126,
      "count": 6,
      "max": [
        0.0004642947460524738,
        -0.002623725449666381,
        0.9999966025352478
      ],
      "min": [
        -0.0004642947460524738,
        -0.002862784080207348,
        0.999995768070221
      ],
      "type": "VEC3"
    },
    {
      "bufferView": 1,
      "byteOffset": 20624,
      "componentType": 5126,
      "count": 6,
      "max": [
        1.0,
        1.0
      ],
      "min": [
        2.98022992950564e-08,
        0.0
      ],
      "type": "VEC2"
    },
    {
      "bufferView": 0,
      "byteOffset": 69804,
      "componentType": 5125,
      "count": 12,
      "type": "SCALAR"
    },
    {
      "bufferView": 2,
      "byteOffset": 191760,
      "componentType": 5126,
      "count": 56,
      "max": [
        3.7621700763702393,
        17.09990119934082,
        9.745901107788086
      ],
      "min": [
        -3.7615602016448975,
        14.831600189208984,
        7.314230442047119
      ],
      "type": "VEC3"
    },
    {
      "bufferView": 2,
      "byteOffset": 192432,
      "componentType": 5126,
      "count": 56,
      "max": [
        0.9617435336112976,
        0.9997684955596924,
        1.0
      ],
      "min": [
        -0.9621860384941101,
        -1.0,
        -0.016858430579304695
      ],
      "type": "VEC3"
    },
    {
      "bufferView": 0,
      "byteOffset": 69852,
      "componentType": 5125,
      "count": 102,
      "type": "SCALAR"
    },
    {
      "bufferView": 2,
      "byteOffset": 193104,
      "componentType": 5126,
      "count": 40,
      "max": [
        3.8965201377868652,
        17.09990119934082,
        12.766300201416016
      ],
      "min": [
        -3.895900011062622,
        7.200290203094482,
        9.5352201461792
      ],
      "type": "VEC3"
    },
    {
      "bufferView": 2,
      "byteOffset": 193584,
      "componentType": 5126,
      "count": 40,
      "max": [
        0.09337149560451508,
        0.41285762190818787,
        0.99992835521698
      ],
      "min": [
        -0.09337148815393448,
        -0.03590644896030426,
        0.9107956886291504
      ],
      "type": "VEC3"
    },
    {
      "bufferView": 1,
      "byteOffset": 20672,
      "componentType": 5126,
      "count": 40,
      "max": [
        1.0,
        1.0
      ],
      "min": [
        0.0,
        0.0
      ],
      "type": "VEC2"
    },
    {
      "bufferView": 0,
      "byteOffset": 70260,
      "componentType": 5125,
      "count": 138,
      "type": "SCALAR"
    }
  ],
  "asset": {
    "extras": {
      "author": "dannzjs (https://sketchfab.com/dannzjs)",
      "license": "CC-BY-4.0 (http://creativecommons.org/licenses/by/4.0/)",
      "source": "https://sketchfab.com/3d-models/yatch-ii-150d3f0ae5454708b420b1a273abc3a2",
      "title": "Yatch_II"
    },
    "generator": "Sketchfab-15.40.0",
    "version": "2.0"
  },
  "bufferViews": [
    {
      "buffer": 0,
      "byteLength": 70812,
      "name": "floatBufferViews",
      "target": 34963
    },
    {
      "buffer": 0,
      "byteLength": 20992,
      "byteOffset": 70812,
      "byteStride": 8,
      "name": "floatBufferViews",
      "target": 34962
    },
    {
      "buffer": 0,
      "byteLength": 194064,
      "byteOffset": 91804,
      "byteStride": 12,
      "name": "floatBufferViews",
      "target": 34962
    },
    {
      "buffer": 0,
      "byteLength": 5424,
      "byteOffset": 285868,
      "byteStride": 16,
      "name": "floatBufferViews",
      "target": 34962
    }
  ],
  "buffers": [
    {
      "byteLength": 291292,
      "uri": "scene.bin"
    }
  ],
  "extensionsUsed": [
    "KHR_materials_clearcoat"
  ],
  "images": [
    {
      "uri": "textures/material_0_baseColor.png"
    },
    {
      "uri": "textures/material_1_baseColor.jpeg"
    },
    {
      "uri": "textures/material_2_baseColor.jpeg"
    },
    {
      "uri": "textures/material_3_baseColor.png"
    },
    {
      "uri": "textures/material_4_baseColor.png"
    },
    {
      "uri": "textures/material_5_baseColor.jpeg"
    },
    {
      "uri": "textures/material_6_baseColor.png"
    },
    {
      "uri": "textures/material_7_baseColor.jpeg"
    },
    {
      "uri": "textures/material_8_baseColor.jpeg"
    },
    {
      "uri": "textures/material_9_baseColor.jpeg"
    }
  ],
  "materials": [
    {
      "doubleSided": true,
      "extensions": {
        "KHR_materials_clearcoat": {
          "clearcoatFactor": 1.0,
          "clearcoatRoughnessFactor": 0.04
        }
      },
      "name": "material_10",
      "pbrMetallicRoughness": {
        "metallicFactor": 0.38247735612146627,
        "roughnessFactor": 0.6
      }
    },
    {
      "extensions": {
        "KHR_materials_clearcoat": {
          "clearcoatFactor": 1.0,
          "clearcoatRoughnessFactor": 0.04
        }
      },
      "name": "White",
      "pbrMetallicRoughness": {
        "metallicFactor": 0.0
      }
    },
    {
      "extensions": {
        "KHR_materials_clearcoat": {
          "clearcoatFactor": 1.0,
          "clearcoatRoughnessFactor": 0.04
        }
      },
      "name": "material_0",
      "pbrMetallicRoughness": {
        "baseColorTexture": {
          "index": 0
        },
        "metallicFactor": 0.0
      }
    },
    {
      "name": "material_1",
      "pbrMetallicRoughness": {
        "baseColorTexture": {
          "index": 1
        },
        "metallicFactor": 0.0
      }
    },
    {
      "name": "material_2",
      "pbrMetallicRoughness": {
        "baseColorTexture": {
          "index": 2
        },
        "metallicFactor": 0.0
      }
    },
    {
      "name": "material_3",
      "pbrMetallicRoughness": {
        "baseColorTexture": {
          "index": 3
        },
        "metallicFactor": 0.0
      }
    },
    {
      "name": "material_4",
      "pbrMetallicRoughness": {
        "baseColorTexture": {
          "index": 4
        },
        "metallicFactor": 0.5
      }
    },
    {
      "name": "material_5",
      "pbrMetallicRoughness": {
        "baseColorTexture": {
          "index": 5
        },
        "metallicFactor": 0.0
      }
    },
    {
      "extensions": {
        "KHR_materials_clearcoat": {
          "clearcoatFactor": 1.0,
          "clearcoatRoughnessFactor": 0.04
        }
      },
      "name": "material_6",
      "pbrMetallicRoughness": {
        "baseColorTexture": {
          "index": 6
        },
        "metallicFactor": 0.0
      }
    },
    {
      "name": "material_7",
      "pbrMetallicRoughness": {
        "baseColorTexture": {
          "index": 7
        },
        "metallicFactor": 0.0
      }
    },
    {
      "extensions": {
        "KHR_materials_clearcoat": {
          "clearcoatFactor": 1.0,
          "clearcoatRoughnessFactor": 0.04
        }
      },
      "name": "material_8",
      "pbrMetallicRoughness": {
        "baseColorTexture": {
          "index": 8
        }
      }
    },
    {
      "name": "Yacht_m",
      "pbrMetallicRoughness": {
        "baseColorFactor": [
          0.533277,
          0.533277,
          0.533277,
          1.0
        ],
        "metallicFactor": 0.480001,
        "roughnessFactor": 0.6
      }
    },
    {
      "extensions": {
        "KHR_materials_clearcoat": {
          "clearcoatFactor": 1.0,
          "clearcoatRoughnessFactor": 0.04
        }
      },
      "name": "material_9",
      "pbrMetallicRoughness": {
        "baseColorTexture": {
          "index": 9
        },
        "metallicFactor": 0.0
      }
    }
  ],
  "meshes": [
    {
      "name": "Object_0",
      "primitives": [
        {
          "attributes": {
            "NORMAL": 1,
            "POSITION": 0
          },
          "indices": 2,
          "material": 1,
          "mode": 4
        }
      ]
    },
    {
      "name": "Object_1",
      "primitives": [
        {
          "attributes": {
            "NORMAL": 4,
            "POSITION": 3,
            "TEXCOORD_0": 5
          },
          "indices": 6,
          "material": 2,
          "mode": 4
        }
      ]
    },
    {
      "name": "Object_2",
      "primitives": [
        {
          "attributes": {
            "COLOR_0": 9,
            "NORMAL": 8,
            "POSITION": 7
          },
          "indices": 10,
          "material": 0,
          "mode": 4
        }
      ]
    },
    {
      "name": "Object_3",
      "primitives": [
        {
          "attributes": {
            "NORMAL": 12,
            "POSITION": 11,
            "TEXCOORD_0": 13
          },
          "indices": 14,
          "material": 3,
          "mode": 4
        }
      ]
    },
    {
      "name": "Object_4",
      "primitives": [
        {
          "attributes": {
            "NORMAL": 16,
            "POSITION": 15,
            "TEXCOORD_0": 17
          },
          "indices": 18,
          "material": 4,
          "mode": 4
        }
      ]
    },
    {
      "name": "Object_5",
      "primitives": [
        {
          "attributes": {
            "NORMAL": 20,
            "POSITION": 19,
            "TEXCOORD_0": 21
          },
          "indices": 22,
          "material": 5,
          "mode": 4
        }
      ]
    },
    {
      "name": "Object_6",
      "primitives": [
        {
          "attributes": {
            "NORMAL": 24,
            "POSITION": 23,
            "TEXCOORD_0": 25
          },
          "indices": 26,
          "material": 6,
          "mode": 4
        }
      ]
    },
    {
      "name": "Object_7",
      "primitives": [
        {
          "attributes": {
            "NORMAL": 28,
            "POSITION": 27,
            "TEXCOORD_0": 29
          },
          "indices": 30,
          "material": 7,
          "mode": 4
        }
      ]
    },
    {
      "name": "Object_8",
      "primitives": [
        {
          "attributes": {
            "NORMAL": 32,
            "POSITION": 31,
            "TEXCOORD_0": 33
          },
          "indices": 34,
          "material": 8,
          "mode": 4
        }
      ]
    },
    {
      "name": "Object_9",
      "primitives": [
        {
          "attributes": {
            "NORMAL": 36,
            "POSITION": 35,
            "TEXCOORD_0": 37
          },
          "indices": 38,
          "material": 9,
          "mode": 4
        }
      ]
    },
    {
      "name": "Object_10",
      "primitives": [
        {
          "attributes": {
            "NORMAL": 40,
            "POSITION": 39,
            "TEXCOORD_0": 41
          },
          "indices": 42,
          "material": 10,
          "mode": 4
        }
      ]
    },
    {
      "name": "Object_11",
      "primitives": [
        {
          "attributes": {
            "NORMAL": 44,
            "POSITION": 43
          },
          "indices": 45,
          "material": 11,
          "mode": 4
        }
      ]
    },
    {
      "name": "Object_12",
      "primitives": [
        {
          "attributes": {
            "NORMAL": 47,
            "POSITION": 46,
            "TEXCOORD_0": 48
          },
          "indices": 49,
          "material": 12,
          "mode": 4
        }
      ]
    }
  ],
  "nodes": [
    {
      "children": [
        1
      ],
      "matrix": [
        1.0,
        0.0,
        0.0,
        0.0,
        0.0,
        2.220446049250313e-16,
        -1.0,
        0.0,
        0.0,
        1.0,
        2.220446049250313e-16,
        0.0,
        0.0,
        0.0,
        0.0,
        1.0
      ],
      "name": "Sketchfab_model"
    },
    {
      "children": [
        2
      ],
      "name": "root"
    },
    {
      "children": [
        3
      ],
      "matrix": [
        1.0,
        0.0,
        0.0,
        0.0,
        0.0,
        2.220446049250313e-16,
        1.0,
        0.0,
        0.0,
        -1.0,
        2.220446049250313e-16,
        0.0,
        0.0,
        0.0,
        0.0,
        1.0
      ],
      "name": "GLTF_SceneRootNode"
    },
    {
      "children": [
        4,
        5,
        6,
        7,
        8,
        9,
        10,
        11,
        12,
        13,
        14,
        15,
        16
      ],
      "matrix": [
        0.9999999403953552,
        0.0,
        0.0,
        0.0,
        0.0,
        -1.1920928244535389e-07,
        -0.9999998211860657,
        0.0,
        0.0,
        0.9999998211860657,
        -1.1920928244535389e-07,
        0.0,
        0.0,
        0.026343613862991333,
        -1.514029860496521,
        1.0
      ],
      "name": "_0"
    },
    {
      "mesh": 0,
      "name": "Object_4"
    },
    {
      "mesh": 1,
      "name": "Object_5"
    },
    {
      "mesh": 2,
      "name": "Object_6"
    },
    {
      "mesh": 3,
      "name": "Object_7"
    },
    {
      "mesh": 4,
      "name": "Object_8"
    },
    {
      "mesh": 5,
      "name": "Object_9"
    },
    {
      "mesh": 6,
      "name": "Object_10"
    },
    {
      "mesh": 7,
      "name": "Object_11"
    },
    {
      "mesh": 8,
      "name": "Object_12"
    },
    {
      "mesh": 9,
      "name": "Object_13"
    },
    {
      "mesh": 10,
      "name": "Object_14"
    },
    {
      "mesh": 11,
      "name": "Object_15"
    },
    {
      "mesh": 12,
      "name": "Object_16"
    }
  ],
  "samplers": [
    {
      "magFilter": 9729,
      "minFilter": 9729,
      "wrapS": 10497,
      "wrapT": 10497
    }
  ],
  "scene": 0,
  "scenes": [
    {
      "name": "Sketchfab_Scene",
      "nodes": [
        0
      ]
    }
  ],
  "textures": [
    {
      "sampler": 0,
      "source": 0
    },
    {
      "sampler": 0,
      "source": 1
    },
    {
      "sampler": 0,
      "source": 2
    },
    {
      "sampler": 0,
      "source": 3
    },
    {
      "sampler": 0,
      "source": 4
    },
    {
      "sampler": 0,
      "source": 5
    },
    {
      "sampler": 0,
      "source": 6
    },
    {
      "sampler": 0,
      "source": 7
    },
    {
      "sampler": 0,
      "source": 8
    },
    {
      "sampler": 0,
      "source": 9
    }
  ]
}
