{
  "accessors": [
    {
      "bufferView": 2,
      "componentType": 5126,
      "count": 2264,
      "max": [
        226.8927001953125,
        82.35718536376953,
        217.31976318359375
      ],
      "min": [
        -213.03448486328125,
        -23.926544189453125,
        -246.79452514648438
      ],
      "type": "VEC3"
    },
    {
      "bufferView": 2,
      "byteOffset": 27168,
      "componentType": 5126,
      "count": 2264,
      "max": [
        1.0,
        1.0,
        1.0
      ],
      "min": [
        -1.0,
        -1.0,
        -1.0
      ],
      "type": "VEC3"
    },
    {
      "bufferView": 1,
      "componentType": 5126,
      "count": 2264,
      "max": [
        1.0,
        1.0
      ],
      "min": [
        0.0,
        0.0
      ],
      "type": "VEC2"
    },
    {
      "bufferView": 0,
      "componentType": 5125,
      "count": 4968,
      "type": "SCALAR"
    },
    {
      "bufferView": 2,
      "byteOffset": 54336,
      "componentType": 5126,
      "count": 254,
      "max": [
        245.7613983154297,
        36.89404296875,
        212.11878967285156
      ],
      "min": [
        -231.90318298339844,
        -17.354183197021484,
        -237.04502868652344
      ],
      "type": "VEC3"
    },
    {
      "bufferView": 2,
      "byteOffset": 57384,
      "componentType": 5126,
      "count": 254,
      "max": [
        0.9990787506103516,
        0.9993162751197815,
        0.6629048585891724
      ],
      "min": [
        -0.9990787506103516,
        -0.9999708533287048,
        -0.9855920076370239
      ],
      "type": "VEC3"
    },
    {
      "bufferView": 1,
      "byteOffset": 18112,
      "componentType": 5126,
      "count": 254,
      "max": [
        1.0,
        1.0
      ],
      "min": [
        0.0,
        0.0
      ],
      "type": "VEC2"
    },
    {
      "bufferView": 0,
      "byteOffset": 19872,
      "componentType": 5125,
      "count": 462,
      "type": "SCALAR"
    },
    {
      "bufferView": 2,
      "byteOffset": 60432,
      "componentType": 5126,
      "count": 6,
      "max": [
        33.973602294921875,
        -17.739028930664063,
        66.03628540039063
      ],
      "min": [
        -20.115388870239258,
        -19.100862503051758,
        63.23868179321289
      ],
      "type": "VEC3"
    },
    {
      "bufferView": 2,
      "byteOffset": 60504,
      "componentType": 5126,
      "count": 6,
      "max": [
        0.581256091594696,
        -0.812404215335846,
        0.04626866802573204
      ],
      "min": [
        -0.5812557935714722,
        -0.8124043941497803,
        0.046268489211797714
      ],
      "type": "VEC3"
    },
    {
      "bufferView": 1,
      "byteOffset": 20144,
      "componentType": 5126,
      "count": 6,
      "max": [
        0.8658336997032166,
        0.7039096355438232
      ],
      "min": [
        0.8612955212593079,
        0.6985259056091309
      ],
      "type": "VEC2"
    },
    {
      "bufferView": 0,
      "byteOffset": 21720,
      "componentType": 5125,
      "count": 6,
      "type": "SCALAR"
    },
    {
      "bufferView": 2,
      "byteOffset": 60576,
      "componentType": 5126,
      "count": 1774,
      "max": [
        68.27336883544922,
        31.98002815246582,
        172.8312225341797
      ],
      "min": [
        -54.41515350341797,
        -14.691875457763672,
        -81.62677764892578
      ],
      "type": "VEC3"
    },
    {
      "bufferView": 2,
      "byteOffset": 81864,
      "componentType": 5126,
      "count": 1774,
      "max": [
        0.9776625037193298,
        0.9873524308204651,
        1.0
      ],
      "min": [
        -0.9776626229286194,
        -0.9468148350715637,
        -0.993492841720581
      ],
      "type": "VEC3"
    },
    {
      "bufferView": 1,
      "byteOffset": 20192,
      "componentType": 5126,
      "count": 1774,
      "max": [
        1.0,
        1.0
      ],
      "min": [
        0.0,
        0.0
      ],
      "type": "VEC2"
    },
    {
      "bufferView": 0,
      "byteOffset": 21744,
      "componentType": 5125,
      "count": 4380,
      "type": "SCALAR"
    },
    {
      "bufferView": 2,
      "byteOffset": 103152,
      "componentType": 5126,
      "count": 220,
      "max": [
        44.35757827758789,
        15.695404052734375,
        170.5127716064453
      ],
      "min": [
        -30.499364852905273,
        1.1398004293441772,
        -36.754371643066406
      ],
      "type": "VEC3"
    },
    {
      "bufferView": 2,
      "byteOffset": 105792,
      "componentType": 5126,
      "count": 220,
      "max": [
        0.9498808979988098,
        0.8533914089202881,
        0.5240312814712524
      ],
      "min": [
        -0.9498808979988098,
        0.3115701377391815,
        -0.0741327553987503
      ],
      "type": "VEC3"
    },
    {
      "bufferView": 1,
      "byteOffset": 34384,
      "componentType": 5126,
      "count": 220,
      "max": [
        1.0,
        1.0
      ],
      "min": [
        0.0,
        0.0
      ],
      "type": "VEC2"
    },
    {
      "bufferView": 0,
      "byteOffset": 39264,
      "componentType": 5125,
      "count": 696,
      "type": "SCALAR"
    },
    {
      "bufferView": 2,
      "byteOffset": 108432,
      "componentType": 5126,
      "count": 184,
      "max": [
        226.89747619628906,
        -15.972007751464844,
        -54.218971252441406
      ],
      "min": [
        -213.0392608642578,
        -16.894336700439453,
        -55.86939239501953
      ],
      "type": "VEC3"
    },
    {
      "bufferView": 2,
      "byteOffset": 110640,
      "componentType": 5126,
      "count": 184,
      "max": [
        0.9913828372955322,
        0.9922459125518799,
        0.9451402425765991
      ],
      "min": [
        -0.9913828372955322,
        -0.9993460178375244,
        -0.9932891130447388
      ],
      "type": "VEC3"
    },
    {
      "bufferView": 1,
      "byteOffset": 36144,
      "componentType": 5126,
      "count": 184,
      "max": [
        1.0,
        1.0
      ],
      "min": [
        0.0,
        0.0
      ],
      "type": "VEC2"
    },
    {
      "bufferView": 0,
      "byteOffset": 42048,
      "componentType": 5125,
      "count": 408,
      "type": "SCALAR"
    },
    {
      "bufferView": 2,
      "byteOffset": 112848,
      "componentType": 5126,
      "count": 92,
      "max": [
        1.000950574874878,
        1.030649185180664,
        1.215387225151062
      ],
      "min": [
        -1.000950574874878,
        -1.1559823751449585,
        -0.9121161699295044
      ],
      "type": "VEC3"
    },
    {
      "bufferView": 2,
      "byteOffset": 113952,
      "componentType": 5126,
      "count": 92,
      "max": [
        0.9791415333747864,
        0.9898618459701538,
        0.9976165294647217
      ],
      "min": [
        -0.9791415333747864,
        -0.9767104387283325,
        -0.9994039535522461
      ],
      "type": "VEC3"
    },
    {
      "bufferView": 1,
      "byteOffset": 37616,
      "componentType": 5126,
      "count": 92,
      "max": [
        1.0,
        1.0
      ],
      "min": [
        0.0,
        0.0
      ],
      "type": "VEC2"
    },
    {
      "bufferView": 0,
      "byteOffset": 43680,
      "componentType": 5125,
      "count": 204,
      "type": "SCALAR"
    }
  ],
  "asset": {
    "extras": {
      "author": "antonmoek (https://sketchfab.com/antonmoek)",
      "license": "CC-BY-4.0 (http://creativecommons.org/licenses/by/4.0/)",
      "source": "https://sketchfab.com/3d-models/cartoon-low-poly-private-jet-d34c32118cd14bd18e3ced888f6f3d70",
      "title": "Cartoon Low Poly Private Jet"
    },
    "generator": "Sketchfab-16.32.0",
    "version": "2.0"
  },
  "bufferViews": [
    {
      "buffer": 0,
      "byteLength": 44496,
      "name": "floatBufferViews",
      "target": 34963
    },
    {
      "buffer": 0,
      "byteLength": 38352,
      "byteOffset": 44496,
      "byteStride": 8,
      "name": "floatBufferViews",
      "target": 34962
    },
    {
      "buffer": 0,
      "byteLength": 115056,
      "byteOffset": 82848,
      "byteStride": 12,
      "name": "floatBufferViews",
      "target": 34962
    }
  ],
  "buffers": [
    {
      "byteLength": 197904,
      "uri": "scene.bin"
    }
  ],
  "extensionsUsed": [
    "KHR_materials_specular"
  ],
  "materials": [
    {
      "doubleSided": true,
      "name": "Jet__0",
      "pbrMetallicRoughness": {
        "metallicFactor": 0.0,
        "roughnessFactor": 0.6
      }
    },
    {
      "doubleSided": true,
      "name": "body",
      "pbrMetallicRoughness": {
        "baseColorFactor": [
          0.8,
          0.8,
          0.8,
          1.0
        ],
        "metallicFactor": 0.0,
        "roughnessFactor": 0.3869296870077541
      }
    },
    {
      "doubleSided": true,
      "extensions": {
        "KHR_materials_specular": {
          "specularColorFactor": [
            1.0,
            1.0,
            1.0
          ],
          "specularFactor": 0.15759458377560343
        }
      },
      "name": "orange",
      "pbrMetallicRoughness": {
        "baseColorFactor": [
          0.056,
          0.614,
          0.8,
          1.0
        ],
        "metallicFactor": 0.0,
        "roughnessFactor": 0.9524317153998911
      }
    },
    {
      "doubleSided": true,
      "name": "body_2",
      "pbrMetallicRoughness": {
        "baseColorFactor": [
          0.64,
          0.64,
          0.64,
          1.0
        ],
        "metallicFactor": 0.0,
        "roughnessFactor": 0.9524317153998911
      }
    },
    {
      "doubleSided": true,
      "extensions": {
        "KHR_materials_specular": {
          "specularColorFactor": [
            1.0,
            1.0,
            1.0
          ],
          "specularFactor": 0.3762229337995918
        }
      },
      "name": "glass",
      "pbrMetallicRoughness": {
        "baseColorFactor": [
          0.05429463240615386,
          0.05429463240615386,
          0.05429463240615386,
          1.0
        ],
        "metallicFactor": 0.0,
        "roughnessFactor": 0.1804473564295429
      }
    },
    {
      "doubleSided": true,
      "name": "material",
      "pbrMetallicRoughness": {
        "baseColorFactor": [
          0.8,
          0.056,
          0.056,
          1.0
        ],
        "metallicFactor": 0.0,
        "roughnessFactor": 0.9524317153998911
      }
    }
  ],
  "meshes": [
    {
      "name": "Jet_body_0",
      "primitives": [
        {
          "attributes": {
            "NORMAL": 1,
            "POSITION": 0,
            "TEXCOORD_0": 2
          },
          "indices": 3,
          "material": 1,
          "mode": 4
        }
      ]
    },
    {
      "name": "Jet_orange_0",
      "primitives": [
        {
          "attributes": {
            "NORMAL": 5,
            "POSITION": 4,
            "TEXCOORD_0": 6
          },
          "indices": 7,
          "material": 2,
          "mode": 4
        }
      ]
    },
    {
      "name": "Jet__0",
      "primitives": [
        {
          "attributes": {
            "NORMAL": 9,
            "POSITION": 8,
            "TEXCOORD_0": 10
          },
          "indices": 11,
          "material": 0,
          "mode": 4
        }
      ]
    },
    {
      "name": "Jet_body 2_0",
      "primitives": [
        {
          "attributes": {
            "NORMAL": 13,
            "POSITION": 12,
            "TEXCOORD_0": 14
          },
          "indices": 15,
          "material": 3,
          "mode": 4
        }
      ]
    },
    {
      "name": "Jet_glass_0",
      "primitives": [
        {
          "attributes": {
            "NORMAL": 17,
            "POSITION": 16,
            "TEXCOORD_0": 18
          },
          "indices": 19,
          "material": 4,
          "mode": 4
        }
      ]
    },
    {
      "name": "Jet_red_0",
      "primitives": [
        {
          "attributes": {
            "NORMAL": 21,
            "POSITION": 20,
            "TEXCOORD_0": 22
          },
          "indices": 23,
          "material": 5,
          "mode": 4
        }
      ]
    },
    {
      "name": "light_red_0",
      "primitives": [
        {
          "attributes": {
            "NORMAL": 25,
            "POSITION": 24,
            "TEXCOORD_0": 26
          },
          "indices": 27,
          "material": 5,
          "mode": 4
        }
      ]
    }
  ],
  "nodes": [
    {
      "children": [
        1
      ],
      "matrix": [
        1.0,
        0.0,
        0.0,
        0.0,
        0.0,
        2.220446049250313e-16,
        -1.0,
        0.0,
        0.0,
        1.0,
        2.220446049250313e-16,
        0.0,
        0.0,
        0.0,
        0.0,
        1.0
      ],
      "name": "Sketchfab_model"
    },
    {
      "children": [
        2
      ],
      "matrix": [
        0.009999999776482582,
        0.0,
        0.0,
        0.0,
        0.0,
        0.0,
        0.009999999776482582,
        0.0,
        0.0,
        -0.009999999776482582,
        0.0,
        0.0,
        0.0,
        0.0,
        0.0,
        1.0
      ],
      "name": "54d6e50af73647a68794b0aa7fd64482.fbx"
    },
    {
      "children": [
        3
      ],
      "name": "RootNode"
    },
    {
      "children": [
        4,
        5,
        6,
        7,
        8,
        9,
        10
      ],
      "matrix": [
        1.0,
        0.0,
        0.0,
        0.0,
        0.0,
        1.0,
        0.0,
        0.0,
        0.0,
        0.0,
        1.0,
        0.0,
        -2.2288241386413574,
        42.882545471191406,
        -31.20934295654297,
        1.0
      ],
      "name": "Jet"
    },
    {
      "mesh": 0,
      "name": "Jet_body_0"
    },
    {
      "mesh": 1,
      "name": "Jet_orange_0"
    },
    {
      "mesh": 2,
      "name": "Jet__0"
    },
    {
      "mesh": 3,
      "name": "Jet_body 2_0"
    },
    {
      "mesh": 4,
      "name": "Jet_glass_0"
    },
    {
      "mesh": 5,
      "name": "Jet_red_0"
    },
    {
      "children": [
        11
      ],
      "matrix": [
        0.9992785689246088,
        0.032346791196947236,
        0.019900421785657936,
        0.0,
        -0.017610149903561332,
        -0.06960851685539748,
        0.9974189375591213,
        0.0,
        0.03364854095440233,
        -0.9970498179531718,
        -0.06898866726634867,
        0.0,
        6.903518199920654,
        82.50497436523438,
        -243.60394287109375,
        1.0
      ],
      "name": "light"
    },
    {
      "mesh": 6,
      "name": "light_red_0"
    }
  ],
  "scene": 0,
  "scenes": [
    {
      "name": "Sketchfab_Scene",
      "nodes": [
        0
      ]
    }
  ]
}
