{
  "accessors": [
    {
      "bufferView": 2,
      "componentType": 5126,
      "count": 9327,
      "max": [
        20.101802825927734,
        24.984664916992188,
        4.808868885040283
      ],
      "min": [
        -20.101802825927734,
        -5.505763053894043,
        -2.249737024307251
      ],
      "type": "VEC3"
    },
    {
      "bufferView": 2,
      "byteOffset": 111924,
      "componentType": 5126,
      "count": 9327,
      "max": [
        1.0,
        1.0,
        1.0
      ],
      "min": [
        -1.0,
        -1.0,
        -1.0
      ],
      "type": "VEC3"
    },
    {
      "bufferView": 1,
      "componentType": 5126,
      "count": 9327,
      "max": [
        0.65625,
        1.0
      ],
      "min": [
        0.34375,
        -0.0
      ],
      "type": "VEC2"
    },
    {
      "bufferView": 0,
      "componentType": 5125,
      "count": 50400,
      "type": "SCALAR"
    },
    {
      "bufferView": 2,
      "byteOffset": 223848,
      "componentType": 5126,
      "count": 9041,
      "max": [
        17.319210052490234,
        24.45437240600586,
        4.047739028930664
      ],
      "min": [
        -17.319210052490234,
        -0.5164899826049805,
        -1.0613470077514648
      ],
      "type": "VEC3"
    },
    {
      "bufferView": 2,
      "byteOffset": 332340,
      "componentType": 5126,
      "count": 9041,
      "max": [
        1.0,
        0.9999597668647766,
        1.0
      ],
      "min": [
        -1.0,
        -0.9999597668647766,
        -1.0
      ],
      "type": "VEC3"
    },
    {
      "bufferView": 1,
      "byteOffset": 74616,
      "componentType": 5126,
      "count": 9041,
      "max": [
        1.0,
        1.0
      ],
      "min": [
        0.0,
        -0.0
      ],
      "type": "VEC2"
    },
    {
      "bufferView": 0,
      "byteOffset": 201600,
      "componentType": 5125,
      "count": 46080,
      "type": "SCALAR"
    },
    {
      "bufferView": 2,
      "byteOffset": 440832,
      "componentType": 5126,
      "count": 9583,
      "max": [
        20.071531295776367,
        24.971750259399414,
        4.811576843261719
      ],
      "min": [
        -20.071531295776367,
        -5.557464122772217,
        -2.246515989303589
      ],
      "type": "VEC3"
    },
    {
      "bufferView": 2,
      "byteOffset": 555828,
      "componentType": 5126,
      "count": 9583,
      "max": [
        1.0,
        1.0,
        1.0
      ],
      "min": [
        -1.0,
        -1.0,
        -1.0
      ],
      "type": "VEC3"
    },
    {
      "bufferView": 1,
      "byteOffset": 146944,
      "componentType": 5126,
      "count": 9583,
      "max": [
        1.0,
        1.0
      ],
      "min": [
        0.0,
        -0.0
      ],
      "type": "VEC2"
    },
    {
      "bufferView": 0,
      "byteOffset": 385920,
      "componentType": 5125,
      "count": 51840,
      "type": "SCALAR"
    },
    {
      "bufferView": 2,
      "byteOffset": 670824,
      "componentType": 5126,
      "count": 9506,
      "max": [
        1.4878259897232056,
        14.432842254638672,
        2.992130994796753
      ],
      "min": [
        -1.0609960556030273,
        -0.17820000648498535,
        2.0390310287475586
      ],
      "type": "VEC3"
    },
    {
      "bufferView": 2,
      "byteOffset": 784896,
      "componentType": 5126,
      "count": 9506,
      "max": [
        0.9999098777770996,
        0.9999991059303284,
        0.969738245010376
      ],
      "min": [
        -0.9998846650123596,
        -0.8196985125541687,
        -0.99993497133255
      ],
      "type": "VEC3"
    },
    {
      "bufferView": 1,
      "byteOffset": 223608,
      "componentType": 5126,
      "count": 9506,
      "max": [
        1.0,
        1.0
      ],
      "min": [
        0.0,
        0.0
      ],
      "type": "VEC2"
    },
    {
      "bufferView": 0,
      "byteOffset": 593280,
      "componentType": 5125,
      "count": 49176,
      "type": "SCALAR"
    },
    {
      "bufferView": 2,
      "byteOffset": 898968,
      "componentType": 5126,
      "count": 8985,
      "max": [
        -1.0134479999542236,
        14.432842254638672,
        2.6403040885925293
      ],
      "min": [
        -1.5002340078353882,
        0.8985900282859802,
        2.008725881576538
      ],
      "type": "VEC3"
    },
    {
      "bufferView": 2,
      "byteOffset": 1006788,
      "componentType": 5126,
      "count": 8985,
      "max": [
        0.9998846650123596,
        0.8753520250320435,
        0.9697377681732178
      ],
      "min": [
        -0.9999097585678101,
        -0.8196997046470642,
        -0.6444936990737915
      ],
      "type": "VEC3"
    },
    {
      "bufferView": 1,
      "byteOffset": 299656,
      "componentType": 5126,
      "count": 8985,
      "max": [
        1.0,
        0.5
      ],
      "min": [
        0.0,
        0.0
      ],
      "type": "VEC2"
    },
    {
      "bufferView": 0,
      "byteOffset": 789984,
      "componentType": 5125,
      "count": 46680,
      "type": "SCALAR"
    },
    {
      "bufferView": 2,
      "byteOffset": 1114608,
      "componentType": 5126,
      "count": 7974,
      "max": [
        1.4694850444793701,
        14.438417434692383,
        3.0303640365600586
      ],
      "min": [
        -1.4778989553451538,
        -0.23091299831867218,
        2.005429983139038
      ],
      "type": "VEC3"
    },
    {
      "bufferView": 2,
      "byteOffset": 1210296,
      "componentType": 5126,
      "count": 7974,
      "max": [
        0.9998881220817566,
        0.9999991059303284,
        0.9991931319236755
      ],
      "min": [
        -0.999888002872467,
        -0.9968821406364441,
        -0.99993497133255
      ],
      "type": "VEC3"
    },
    {
      "bufferView": 1,
      "byteOffset": 371536,
      "componentType": 5126,
      "count": 7974,
      "max": [
        1.0,
        1.0
      ],
      "min": [
        0.0,
        0.0
      ],
      "type": "VEC2"
    },
    {
      "bufferView": 0,
      "byteOffset": 976704,
      "componentType": 5125,
      "count": 41328,
      "type": "SCALAR"
    },
    {
      "bufferView": 2,
      "byteOffset": 1305984,
      "componentType": 5126,
      "count": 8385,
      "max": [
        5.453242778778076,
        -0.509568989276886,
        2.1770710945129395
      ],
      "min": [
        -7.3798627853393555,
        -0.6745589971542358,
        -2.1770710945129395
      ],
      "type": "VEC3"
    },
    {
      "bufferView": 2,
      "byteOffset": 1406604,
      "componentType": 5126,
      "count": 8385,
      "max": [
        1.0,
        0.9996145367622375,
        1.0
      ],
      "min": [
        -1.0,
        -0.9996145367622375,
        -1.0
      ],
      "type": "VEC3"
    },
    {
      "bufferView": 1,
      "byteOffset": 435328,
      "componentType": 5126,
      "count": 8385,
      "max": [
        1.0,
        1.0
      ],
      "min": [
        0.0,
        0.0
      ],
      "type": "VEC2"
    },
    {
      "bufferView": 0,
      "byteOffset": 1142016,
      "componentType": 5125,
      "count": 46800,
      "type": "SCALAR"
    },
    {
      "bufferView": 2,
      "byteOffset": 1507224,
      "componentType": 5126,
      "count": 8385,
      "max": [
        12.223344802856445,
        -0.509568989276886,
        2.1770710945129395
      ],
      "min": [
        3.025722026824951,
        -0.6745589971542358,
        -0.2504499852657318
      ],
      "type": "VEC3"
    },
    {
      "bufferView": 2,
      "byteOffset": 1607844,
      "componentType": 5126,
      "count": 8385,
      "max": [
        1.0,
        0.9996145367622375,
        1.0
      ],
      "min": [
        -1.0,
        -0.9996145367622375,
        -1.0
      ],
      "type": "VEC3"
    },
    {
      "bufferView": 1,
      "byteOffset": 502408,
      "componentType": 5126,
      "count": 8385,
      "max": [
        1.0,
        1.0
      ],
      "min": [
        0.0,
        0.0
      ],
      "type": "VEC2"
    },
    {
      "bufferView": 0,
      "byteOffset": 1329216,
      "componentType": 5125,
      "count": 46800,
      "type": "SCALAR"
    },
    {
      "bufferView": 2,
      "byteOffset": 1708464,
      "componentType": 5126,
      "count": 8385,
      "max": [
        10.296724319458008,
        -0.509568989276886,
        2.1770710945129395
      ],
      "min": [
        -12.223344802856445,
        -0.6745589971542358,
        -2.1770710945129395
      ],
      "type": "VEC3"
    },
    {
      "bufferView": 2,
      "byteOffset": 1809084,
      "componentType": 5126,
      "count": 8385,
      "max": [
        1.0,
        0.9996145367622375,
        1.0
      ],
      "min": [
        -1.0,
        -0.9996145367622375,
        -1.0
      ],
      "type": "VEC3"
    },
    {
      "bufferView": 1,
      "byteOffset": 569488,
      "componentType": 5126,
      "count": 8385,
      "max": [
        1.0,
        1.0
      ],
      "min": [
        0.0,
        0.0
      ],
      "type": "VEC2"
    },
    {
      "bufferView": 0,
      "byteOffset": 1516416,
      "componentType": 5125,
      "count": 46800,
      "type": "SCALAR"
    },
    {
      "bufferView": 2,
      "byteOffset": 1909704,
      "componentType": 5126,
      "count": 1677,
      "max": [
        -7.869204044342041,
        -0.509568989276886,
        0.2504499852657318
      ],
      "min": [
        -10.223344802856445,
        -0.6745589971542358,
        -0.2504499852657318
      ],
      "type": "VEC3"
    },
    {
      "bufferView": 2,
      "byteOffset": 1929828,
      "componentType": 5126,
      "count": 1677,
      "max": [
        1.0,
        0.9996145367622375,
        0.9781486392021179
      ],
      "min": [
        -1.0,
        -0.9996145367622375,
        -0.9781477451324463
      ],
      "type": "VEC3"
    },
    {
      "bufferView": 1,
      "byteOffset": 636568,
      "componentType": 5126,
      "count": 1677,
      "max": [
        1.0,
        1.0
      ],
      "min": [
        0.0,
        0.0
      ],
      "type": "VEC2"
    },
    {
      "bufferView": 0,
      "byteOffset": 1703616,
      "componentType": 5125,
      "count": 9360,
      "type": "SCALAR"
    },
    {
      "bufferView": 2,
      "byteOffset": 1949952,
      "componentType": 5126,
      "count": 9516,
      "max": [
        10.902584075927734,
        1.5533980131149292,
        0.8563100099563599
      ],
      "min": [
        -10.902584075927734,
        -1.3407139778137207,
        -0.8563100099563599
      ],
      "type": "VEC3"
    },
    {
      "bufferView": 2,
      "byteOffset": 2064144,
      "componentType": 5126,
      "count": 9516,
      "max": [
        1.0,
        1.0,
        1.0
      ],
      "min": [
        -1.0,
        -1.0,
        -1.0
      ],
      "type": "VEC3"
    },
    {
      "bufferView": 1,
      "byteOffset": 649984,
      "componentType": 5126,
      "count": 9516,
      "max": [
        0.65625,
        1.0
      ],
      "min": [
        0.34375,
        -0.0
      ],
      "type": "VEC2"
    },
    {
      "bufferView": 0,
      "byteOffset": 1741056,
      "componentType": 5125,
      "count": 47040,
      "type": "SCALAR"
    }
  ],
  "asset": {
    "extras": {
      "author": "Randall_3D (https://sketchfab.com/Randall_3D)",
      "license": "SKETCHFAB Standard (https://sketchfab.com/licenses)",
      "source": "https://sketchfab.com/3d-models/toon-plane-5-bde751799d0a4c1a9f417ba56468a91f",
      "title": "Toon plane 5"
    },
    "generator": "Sketchfab-15.27.0",
    "version": "2.0"
  },
  "bufferViews": [
    {
      "buffer": 0,
      "byteLength": 1929216,
      "name": "floatBufferViews",
      "target": 34963
    },
    {
      "buffer": 0,
      "byteLength": 726112,
      "byteOffset": 1929216,
      "byteStride": 8,
      "name": "floatBufferViews",
      "target": 34962
    },
    {
      "buffer": 0,
      "byteLength": 2178336,
      "byteOffset": 2655328,
      "byteStride": 12,
      "name": "floatBufferViews",
      "target": 34962
    }
  ],
  "buffers": [
    {
      "byteLength": 4833664,
      "uri": "scene.bin"
    }
  ],
  "extensionsUsed": [
    "KHR_materials_specular"
  ],
  "materials": [
    {
      "doubleSided": true,
      "name": "blinn1SG",
      "pbrMetallicRoughness": {
        "baseColorFactor": [
          0.5259747095201842,
          0.5259747095201842,
          0.5259747095201842,
          1.0
        ],
        "metallicFactor": 0.0,
        "roughnessFactor": 0.0
      }
    },
    {
      "doubleSided": true,
      "name": "blinn2SG",
      "pbrMetallicRoughness": {
        "baseColorFactor": [
          0.0,
          0.38638409712110955,
          1.0,
          1.0
        ],
        "metallicFactor": 0.0,
        "roughnessFactor": 0.22742621691799447
      }
    },
    {
      "doubleSided": true,
      "name": "blinn3SG",
      "pbrMetallicRoughness": {
        "baseColorFactor": [
          0.0,
          0.1811205519864443,
          0.30186758664407354,
          1.0
        ],
        "metallicFactor": 0.0,
        "roughnessFactor": 0.16647365020541016
      }
    },
    {
      "doubleSided": true,
      "name": "blinn4SG",
      "pbrMetallicRoughness": {
        "baseColorFactor": [
          0.13,
          0.13,
          0.13,
          1.0
        ],
        "metallicFactor": 0.0
      }
    },
    {
      "doubleSided": true,
      "extensions": {
        "KHR_materials_specular": {
          "specularColorFactor": [
            1.0,
            1.0,
            1.0
          ],
          "specularFactor": 0.8457168631371066
        }
      },
      "name": "blinn5SG",
      "pbrMetallicRoughness": {
        "baseColorFactor": [
          0.08380977922980336,
          0.08380977922980336,
          0.08380977922980336,
          1.0
        ],
        "metallicFactor": 0.0
      }
    },
    {
      "doubleSided": true,
      "extensions": {
        "KHR_materials_specular": {
          "specularColorFactor": [
            1.0,
            1.0,
            1.0
          ],
          "specularFactor": 0.7177164730406796
        }
      },
      "name": "blinn6SG",
      "pbrMetallicRoughness": {
        "baseColorFactor": [
          0.19146725018590532,
          0.19146725018590532,
          0.19146725018590532,
          1.0
        ],
        "metallicFactor": 0.0,
        "roughnessFactor": 0.0
      }
    }
  ],
  "meshes": [
    {
      "name": "Object_0",
      "primitives": [
        {
          "attributes": {
            "NORMAL": 1,
            "POSITION": 0,
            "TEXCOORD_0": 2
          },
          "indices": 3,
          "material": 0,
          "mode": 4
        }
      ]
    },
    {
      "name": "Object_1",
      "primitives": [
        {
          "attributes": {
            "NORMAL": 5,
            "POSITION": 4,
            "TEXCOORD_0": 6
          },
          "indices": 7,
          "material": 1,
          "mode": 4
        }
      ]
    },
    {
      "name": "Object_2",
      "primitives": [
        {
          "attributes": {
            "NORMAL": 9,
            "POSITION": 8,
            "TEXCOORD_0": 10
          },
          "indices": 11,
          "material": 1,
          "mode": 4
        }
      ]
    },
    {
      "name": "Object_3",
      "primitives": [
        {
          "attributes": {
            "NORMAL": 13,
            "POSITION": 12,
            "TEXCOORD_0": 14
          },
          "indices": 15,
          "material": 2,
          "mode": 4
        }
      ]
    },
    {
      "name": "Object_4",
      "primitives": [
        {
          "attributes": {
            "NORMAL": 17,
            "POSITION": 16,
            "TEXCOORD_0": 18
          },
          "indices": 19,
          "material": 2,
          "mode": 4
        }
      ]
    },
    {
      "name": "Object_5",
      "primitives": [
        {
          "attributes": {
            "NORMAL": 21,
            "POSITION": 20,
            "TEXCOORD_0": 22
          },
          "indices": 23,
          "material": 3,
          "mode": 4
        }
      ]
    },
    {
      "name": "Object_6",
      "primitives": [
        {
          "attributes": {
            "NORMAL": 25,
            "POSITION": 24,
            "TEXCOORD_0": 26
          },
          "indices": 27,
          "material": 4,
          "mode": 4
        }
      ]
    },
    {
      "name": "Object_7",
      "primitives": [
        {
          "attributes": {
            "NORMAL": 29,
            "POSITION": 28,
            "TEXCOORD_0": 30
          },
          "indices": 31,
          "material": 4,
          "mode": 4
        }
      ]
    },
    {
      "name": "Object_8",
      "primitives": [
        {
          "attributes": {
            "NORMAL": 33,
            "POSITION": 32,
            "TEXCOORD_0": 34
          },
          "indices": 35,
          "material": 4,
          "mode": 4
        }
      ]
    },
    {
      "name": "Object_9",
      "primitives": [
        {
          "attributes": {
            "NORMAL": 37,
            "POSITION": 36,
            "TEXCOORD_0": 38
          },
          "indices": 39,
          "material": 4,
          "mode": 4
        }
      ]
    },
    {
      "name": "Object_10",
      "primitives": [
        {
          "attributes": {
            "NORMAL": 41,
            "POSITION": 40,
            "TEXCOORD_0": 42
          },
          "indices": 43,
          "material": 5,
          "mode": 4
        }
      ]
    }
  ],
  "nodes": [
    {
      "children": [
        1
      ],
      "matrix": [
        1.0,
        0.0,
        0.0,
        0.0,
        0.0,
        2.220446049250313e-16,
        -1.0,
        0.0,
        0.0,
        1.0,
        2.220446049250313e-16,
        0.0,
        0.0,
        0.0,
        0.0,
        1.0
      ],
      "name": "Sketchfab_model"
    },
    {
      "children": [
        2,
        3,
        4,
        5,
        6,
        7,
        8,
        9,
        10,
        11,
        12
      ],
      "name": "plane_5.obj.cleaner.materialmerger.gles"
    },
    {
      "mesh": 0,
      "name": "Object_2"
    },
    {
      "mesh": 1,
      "name": "Object_3"
    },
    {
      "mesh": 2,
      "name": "Object_4"
    },
    {
      "mesh": 3,
      "name": "Object_5"
    },
    {
      "mesh": 4,
      "name": "Object_6"
    },
    {
      "mesh": 5,
      "name": "Object_7"
    },
    {
      "mesh": 6,
      "name": "Object_8"
    },
    {
      "mesh": 7,
      "name": "Object_9"
    },
    {
      "mesh": 8,
      "name": "Object_10"
    },
    {
      "mesh": 9,
      "name": "Object_11"
    },
    {
      "mesh": 10,
      "name": "Object_12"
    }
  ],
  "scene": 0,
  "scenes": [
    {
      "name": "Sketchfab_Scene",
      "nodes": [
        0
      ]
    }
  ]
}
